<?xml version="1.0" encoding="utf-8"?>
<!-- Generator: Adobe Illustrator 27.3.1, SVG Export Plug-In . SVG Version: 6.00 Build 0)  -->
<svg version="1.1" id="Calque_1" xmlns="http://www.w3.org/2000/svg" xmlns:xlink="http://www.w3.org/1999/xlink" x="0px" y="0px"
	 viewBox="0 0 380 380" style="enable-background:new 0 0 380 380;" xml:space="preserve">
<style type="text/css">
	.st0{fill:#E9E9FF;stroke:#CCCCCC;stroke-width:0.2128;stroke-linejoin:bevel;stroke-miterlimit:11.7093;}
	.st1{fill:#353564;stroke:#CCCCCC;stroke-width:0.2128;stroke-linejoin:bevel;stroke-miterlimit:11.7093;}
	.st2{fill:#AFAFDE;stroke:#CCCCCC;stroke-width:0.2128;stroke-linejoin:bevel;stroke-miterlimit:11.7093;}
	.st3{fill:#F7F7F4;stroke:#CCCCCC;stroke-width:0.2128;stroke-linejoin:bevel;stroke-miterlimit:11.7093;}
	.st4{fill:#FFFFFF;stroke:#CCCCCC;stroke-width:0.2128;stroke-linejoin:bevel;stroke-miterlimit:11.7093;}
	.st5{fill:#EFEEEA;stroke:#CCCCCC;stroke-width:0.2128;stroke-linejoin:bevel;stroke-miterlimit:11.7093;}
	.st6{fill:#FFD242;stroke:#CCCCCC;stroke-width:0.2128;stroke-linejoin:bevel;stroke-miterlimit:11.7093;}
	.st7{fill:#FFFFFF;}
	.st8{fill:#FFC91D;stroke:#CCCCCC;stroke-width:0.2128;stroke-linejoin:bevel;stroke-miterlimit:11.7093;}
	.st9{fill:#3775A9;stroke:#CCCCCC;stroke-width:0.2128;stroke-linejoin:bevel;stroke-miterlimit:11.7093;}
	.st10{fill:#2F6491;stroke:#CCCCCC;stroke-width:0.2128;stroke-linejoin:bevel;stroke-miterlimit:11.7093;}
</style>
<g>
	<path class="st0" d="M149.1,160.2l27.3,9.9v32.1l-27.3-9.9V160.2z"/>
	<path class="st1" d="M121.4,170.3v32.1l27.7-10.1v-32.1L121.4,170.3z"/>
	<path class="st2" d="M121.4,202.4l27.3,9.9l27.7-10.1l-27.3-9.9L121.4,202.4z"/>
	<path class="st3" d="M121.4,170.3l27.3,9.9l27.7-10.1l-27.3-9.9L121.4,170.3z"/>
	<path class="st4" d="M148.7,180.2v32.1l27.7-10.1v-32.1L148.7,180.2z"/>
	<path class="st5" d="M121.4,170.3l27.3,9.9v32.1l-27.3-9.9L121.4,170.3z"/>
</g>
<g>
	<path class="st0" d="M176.5,137.8l27.3,9.9v32.1l-27.3-9.9V137.8z"/>
	<path class="st1" d="M148.8,147.9V180l27.7-10.1v-32.1L148.8,147.9z"/>
	<path class="st2" d="M148.8,180l27.3,9.9l27.7-10.1l-27.3-9.9L148.8,180z"/>
	<path class="st3" d="M148.8,147.9l27.3,9.9l27.7-10.1l-27.3-9.9L148.8,147.9z"/>
	<path class="st4" d="M176.1,157.8v32.1l27.7-10.1v-32.1L176.1,157.8z"/>
	<path class="st5" d="M148.8,147.9l27.3,9.9v32.1l-27.3-9.9L148.8,147.9z"/>
</g>
<g>
	<path class="st0" d="M121.7,202.6l27.3,9.9v32.1l-27.3-9.9V202.6z"/>
	<path class="st1" d="M94,212.7v32.1l27.7-10.1v-32.1L94,212.7z"/>
	<path class="st2" d="M94,244.7l27.3,9.9l27.7-10.1l-27.3-9.9L94,244.7z"/>
	<path class="st3" d="M94,212.7l27.3,9.9l27.7-10.1l-27.3-9.9L94,212.7z"/>
	<path class="st4" d="M121.3,222.6v32.1l27.7-10.1v-32.1L121.3,222.6z"/>
	<path class="st5" d="M94,212.7l27.3,9.9v32.1L94,244.7L94,212.7z"/>
</g>
<g>
	<path class="st0" d="M149.1,212.5l27.3,9.9v32.1l-27.3-9.9V212.5z"/>
	<path class="st1" d="M121.4,222.6v32.1l27.7-10.1v-32.1L121.4,222.6z"/>
	<path class="st2" d="M121.4,254.7l27.3,9.9l27.7-10.1l-27.3-9.9L121.4,254.7z"/>
	<path class="st3" d="M121.4,222.6l27.3,9.9l27.7-10.1l-27.3-9.9L121.4,222.6z"/>
	<path class="st4" d="M148.7,232.6v32.1l27.7-10.1v-32.1L148.7,232.6z"/>
	<path class="st5" d="M121.4,222.6l27.3,9.9v32.1l-27.3-9.9L121.4,222.6z"/>
</g>
<g>
	<path class="st0" d="M149.1,180.1l27.3,9.9v32.1l-27.3-9.9V180.1z"/>
	<path class="st1" d="M121.4,190.2v32.1l27.7-10.1v-32.1L121.4,190.2z"/>
	<path class="st2" d="M121.4,222.3l27.3,9.9l27.7-10.1l-27.3-9.9L121.4,222.3z"/>
	<path class="st3" d="M121.4,190.2l27.3,9.9l27.7-10.1l-27.3-9.9L121.4,190.2z"/>
	<path class="st4" d="M148.7,200.2v32.1l27.7-10.1v-32.1L148.7,200.2z"/>
	<path class="st5" d="M121.4,190.2l27.3,9.9v32.1l-27.3-9.9L121.4,190.2z"/>
</g>
<g>
	<path class="st0" d="M258.7,192.6l27.3,9.9v32.1l-27.3-9.9V192.6z"/>
	<path class="st1" d="M231,202.7v32.1l27.7-10.1v-32.1L231,202.7z"/>
	<path class="st2" d="M231,234.8l27.3,9.9l27.7-10.1l-27.3-9.9L231,234.8z"/>
	<path class="st3" d="M231,202.7l27.3,9.9l27.7-10.1l-27.3-9.9L231,202.7z"/>
	<path class="st4" d="M258.3,212.6v32.1l27.7-10.1v-32.1L258.3,212.6z"/>
	<path class="st5" d="M231,202.7l27.3,9.9v32.1l-27.3-9.9L231,202.7z"/>
</g>
<g transform="translate(-1683.66 -513.275) scale(.65177)">
	<g>
		<path class="st0" d="M2938.1,1098.3l41.9,15.3v49.2l-41.9-15.2V1098.3z"/>
		<path class="st1" d="M2895.6,1113.8v49.2l42.5-15.5v-49.2L2895.6,1113.8z"/>
		<path class="st2" d="M2895.6,1163l41.9,15.2l42.5-15.5l-41.9-15.2L2895.6,1163z"/>
		<path class="st3" d="M2895.6,1113.8l41.9,15.2l42.5-15.5l-41.9-15.2L2895.6,1113.8z"/>
		<path class="st6" d="M2937.5,1129v49.2l42.5-15.5v-49.2L2937.5,1129z"/>
		<path class="st5" d="M2895.6,1113.8l41.9,15.2v49.2l-41.9-15.3L2895.6,1113.8z"/>
	</g>
	
		<ellipse transform="matrix(0.5736 -0.8191 0.8191 0.5736 326.8843 2915.905)" class="st7" cx="2964.2" cy="1144" rx="6.6" ry="4.6"/>
</g>
<g>
	<path class="st0" d="M203.9,212.5l27.3,9.9v32.1l-27.3-9.9V212.5z"/>
	<path class="st1" d="M176.2,222.6v32.1l27.7-10.1v-32.1L176.2,222.6z"/>
	<path class="st2" d="M176.2,254.7l27.3,9.9l27.7-10.1l-27.3-9.9L176.2,254.7z"/>
	<path class="st3" d="M176.2,222.6l27.3,9.9l27.7-10.1l-27.3-9.9L176.2,222.6z"/>
	<path class="st6" d="M203.5,232.6v32.1l27.7-10.1v-32.1L203.5,232.6z"/>
	<path class="st5" d="M176.2,222.6l27.3,9.9v32.1l-27.3-9.9L176.2,222.6z"/>
</g>
<g>
	<path class="st0" d="M176.5,222.5l27.3,9.9v32.1l-27.3-9.9V222.5z"/>
	<path class="st1" d="M148.8,232.6v32.1l27.7-10.1v-32.1L148.8,232.6z"/>
	<path class="st2" d="M148.8,264.7l27.3,9.9l27.7-10.1l-27.3-9.9L148.8,264.7z"/>
	<path class="st3" d="M148.8,232.6l27.3,9.9l27.7-10.1l-27.3-9.9L148.8,232.6z"/>
	<path class="st4" d="M176.1,242.5v32.1l27.7-10.1v-32.1L176.1,242.5z"/>
	<path class="st5" d="M148.8,232.6l27.3,9.9v32.1l-27.3-9.9L148.8,232.6z"/>
</g>
<g>
	<path class="st0" d="M258.7,160.2l27.3,9.9v32.1l-27.3-9.9V160.2z"/>
	<path class="st1" d="M231,170.3v32.1l27.7-10.1v-32.1L231,170.3z"/>
	<path class="st2" d="M231,202.4l27.3,9.9l27.7-10.1l-27.3-9.9L231,202.4z"/>
	<path class="st3" d="M231,170.3l27.3,9.9l27.7-10.1l-27.3-9.9L231,170.3z"/>
	<path class="st6" d="M258.3,180.2v32.1l27.7-10.1v-32.1L258.3,180.2z"/>
	<path class="st5" d="M231,170.3l27.3,9.9v32.1l-27.3-9.9L231,170.3z"/>
</g>
<g>
	<path class="st0" d="M258.7,127.8l27.3,9.9v32.1l-27.3-9.9V127.8z"/>
	<path class="st1" d="M231,137.9V170l27.7-10.1v-32.1L231,137.9z"/>
	<path class="st2" d="M231,170l27.3,9.9l27.7-10.1l-27.3-9.9L231,170z"/>
	<path class="st8" d="M231,137.9l27.3,9.9l27.7-10.1l-27.3-9.9L231,137.9z"/>
	<path class="st6" d="M258.3,147.8v32.1l27.7-10.1v-32.1L258.3,147.8z"/>
	<path class="st5" d="M231,137.9l27.3,9.9v32.1L231,170L231,137.9z"/>
</g>
<g>
	<path class="st0" d="M231.3,170.2l27.3,9.9v32.1l-27.3-9.9V170.2z"/>
	<path class="st1" d="M203.6,180.3v32.1l27.7-10.1v-32.1L203.6,180.3z"/>
	<path class="st2" d="M203.6,212.3l27.3,9.9l27.7-10.1l-27.3-9.9L203.6,212.3z"/>
	<path class="st3" d="M203.6,180.3l27.3,9.9l27.7-10.1l-27.3-9.9L203.6,180.3z"/>
	<path class="st6" d="M230.9,190.2v32.1l27.7-10.1v-32.1L230.9,190.2z"/>
	<path class="st5" d="M203.6,180.3l27.3,9.9v32.1l-27.3-9.9L203.6,180.3z"/>
</g>
<g>
	<path class="st0" d="M231.3,137.8l27.3,9.9v32.1l-27.3-9.9V137.8z"/>
	<path class="st1" d="M203.6,147.9V180l27.7-10.1v-32.1L203.6,147.9z"/>
	<path class="st2" d="M203.6,180l27.3,9.9l27.7-10.1l-27.3-9.9L203.6,180z"/>
	<path class="st3" d="M203.6,147.9l27.3,9.9l27.7-10.1l-27.3-9.9L203.6,147.9z"/>
	<path class="st9" d="M230.9,157.8v32.1l27.7-10.1v-32.1L230.9,157.8z"/>
	<path class="st5" d="M203.6,147.9l27.3,9.9v32.1l-27.3-9.9L203.6,147.9z"/>
</g>
<g>
	<path class="st0" d="M231.3,105.4l27.3,9.9v32.1l-27.3-9.9V105.4z"/>
	<path class="st1" d="M203.6,115.5v32.1l27.7-10.1v-32.1L203.6,115.5z"/>
	<path class="st2" d="M203.6,147.6l27.3,9.9l27.7-10.1l-27.3-9.9L203.6,147.6z"/>
	<path class="st10" d="M203.6,115.5l27.3,9.9l27.7-10.1l-27.3-9.9L203.6,115.5z"/>
	<path class="st9" d="M230.9,125.4v32.1l27.7-10.1v-32.1L230.9,125.4z"/>
	<path class="st5" d="M203.6,115.5l27.3,9.9v32.1l-27.3-9.9L203.6,115.5z"/>
</g>
<g>
	<path class="st0" d="M203.9,180.1l27.3,9.9v32.1l-27.3-9.9V180.1z"/>
	<path class="st1" d="M176.2,190.2v32.1l27.7-10.1v-32.1L176.2,190.2z"/>
	<path class="st2" d="M176.2,222.3l27.3,9.9l27.7-10.1l-27.3-9.9L176.2,222.3z"/>
	<path class="st3" d="M176.2,190.2l27.3,9.9l27.7-10.1l-27.3-9.9L176.2,190.2z"/>
	<path class="st6" d="M203.5,200.2v32.1l27.7-10.1v-32.1L203.5,200.2z"/>
	<path class="st5" d="M176.2,190.2l27.3,9.9v32.1l-27.3-9.9L176.2,190.2z"/>
</g>
<g>
	<path class="st0" d="M203.9,147.8l27.3,9.9v32.1l-27.3-9.9V147.8z"/>
	<path class="st1" d="M176.2,157.8v32.1l27.7-10.1v-32.1L176.2,157.8z"/>
	<path class="st2" d="M176.2,189.9l27.3,9.9l27.7-10.1l-27.3-9.9L176.2,189.9z"/>
	<path class="st3" d="M176.2,157.8l27.3,9.9l27.7-10.1l-27.3-9.9L176.2,157.8z"/>
	<path class="st9" d="M203.5,167.8v32.1l27.7-10.1v-32.1L203.5,167.8z"/>
	<path class="st5" d="M176.2,157.8l27.3,9.9v32.1l-27.3-9.9L176.2,157.8z"/>
</g>
<g>
	<path class="st0" d="M176.5,190.1l27.3,9.9v32.1l-27.3-9.9V190.1z"/>
	<path class="st1" d="M148.8,200.2v32.1l27.7-10.1v-32.1L148.8,200.2z"/>
	<path class="st2" d="M148.8,232.3l27.3,9.9l27.7-10.1l-27.3-9.9L148.8,232.3z"/>
	<path class="st3" d="M148.8,200.2l27.3,9.9l27.7-10.1l-27.3-9.9L148.8,200.2z"/>
	<path class="st9" d="M176.1,210.1v32.1l27.7-10.1V200L176.1,210.1z"/>
	<path class="st10" d="M148.8,200.2l27.3,9.9v32.1l-27.3-9.9L148.8,200.2z"/>
</g>
<g>
	<path class="st0" d="M176.5,157.7l27.3,9.9v32.1l-27.3-9.9V157.7z"/>
	<path class="st1" d="M148.8,167.8v32.1l27.7-10.1v-32.1L148.8,167.8z"/>
	<path class="st2" d="M148.8,199.9l27.3,9.9l27.7-10.1l-27.3-9.9L148.8,199.9z"/>
	<path class="st10" d="M148.8,167.8l27.3,9.9l27.7-10.1l-27.3-9.9L148.8,167.8z"/>
	<path class="st9" d="M176.1,177.7v32.1l27.7-10.1v-32.1L176.1,177.7z"/>
	<path class="st10" d="M148.8,167.8l27.3,9.9v32.1l-27.3-9.9L148.8,167.8z"/>
</g>
<g transform="translate(-1683.66 -513.275) scale(.65177)">
	<g>
		<path class="st0" d="M2896,964.5l41.9,15.3v49.2l-41.9-15.2V964.5z"/>
		<path class="st1" d="M2853.6,980v49.2l42.5-15.5v-49.2L2853.6,980z"/>
		<path class="st2" d="M2853.6,1029.2l41.9,15.2l42.5-15.5l-41.9-15.2L2853.6,1029.2z"/>
		<path class="st10" d="M2853.6,980l41.9,15.2l42.5-15.5l-41.9-15.2L2853.6,980z"/>
		<path class="st9" d="M2895.4,995.2v49.2l42.5-15.5v-49.2L2895.4,995.2z"/>
		<path class="st10" d="M2853.6,980l41.9,15.2v49.2l-41.9-15.3L2853.6,980z"/>
	</g>
	
		<ellipse transform="matrix(0.5736 -0.8191 0.8191 0.5736 410.864 2817.1912)" class="st7" cx="2911.4" cy="1014" rx="6.6" ry="4.6"/>
</g>
</svg>
