<?xml version='1.0' encoding='utf-8'?>
<svg xmlns="http://www.w3.org/2000/svg" width="153.6mm" height="153.6mm" viewBox="0 0 153.6 153.6">
<polygon points="12.8,76.8 13.056000000000001,75.584 13.440000000000001,74.77759999999999 14.08,73.9968 15.360000000000001,73.0496 16.64,72.4096 17.92,71.9232 19.200000000000003,71.5392 21.76,70.8864 25.6,70.1696 28.16,69.7856 32.0,69.312 34.56,69.0432 38.400000000000006,68.71039999999999 40.96,68.5312 44.8,68.3008 47.36,68.1856 51.2,68.032 55.040000000000006,67.94239999999999 57.599999999999994,67.8912 61.44,67.8656 64.0,67.8784 67.84,67.904 70.4,67.94239999999999 74.24,68.0448 76.8,68.1216 80.64,68.2752 83.2,68.4032 85.75999999999999,68.544 89.6,68.8 92.16,68.99199999999999 96.0,69.312 99.84,69.696 102.39999999999999,69.9776 104.96,70.28479999999999 108.8,70.79679999999999 111.36,71.18079999999999 115.2,71.82079999999999 117.75999999999999,72.2816 121.6,73.0368 124.16,73.5872 128.0,74.4832 130.56,75.1232 134.4,76.1728 136.96,76.9152 138.24,77.2992 139.52,77.7088 140.8,78.13119999999999 140.8,78.8864 139.52,78.5536 138.24,78.1952 136.96,77.88799999999999 135.68,77.6448 134.4,77.4272 133.12,77.24799999999999 130.56,77.0048 126.72,76.9024 124.16,76.9664 121.6,77.10719999999999 119.03999999999999,77.4144 115.2,77.9904 111.36,78.72 108.8,79.2576 106.24,79.80799999999999 102.39999999999999,80.6656 99.84,81.22879999999999 96.0,82.048 93.44,82.5728 89.6,83.3152 87.03999999999999,83.7504 83.2,84.32639999999999 80.64,84.6592 76.8,85.0432 74.24,85.2096 70.4,85.4528 66.56,85.6064 64.0,85.6576 60.16,85.7088 57.599999999999994,85.7088 53.760000000000005,85.6576 51.2,85.5936 48.64,85.50399999999999 44.8,85.3248 40.96,85.0816 38.400000000000006,84.9024 34.56,84.5568 32.0,84.288 28.16,83.8016 25.6,83.4176 21.76,82.7136 19.200000000000003,82.0736 17.92,81.6768 16.64,81.2032 15.360000000000001,80.576 14.08,79.6288 13.440000000000001,78.848 13.056000000000001,77.9904 12.8,76.8" fill="none" stroke="black" stroke-width="0.5" /></svg>