<?xml version='1.0' encoding='utf-8'?>
<svg xmlns="http://www.w3.org/2000/svg" width="153.6mm" height="153.6mm" viewBox="0 0 153.6 153.6">
<polygon points="12.8,76.8 13.056000000000001,78.01599999999999 13.440000000000001,78.8224 14.08,79.6032 15.360000000000001,80.5504 16.64,81.1904 17.92,81.6768 19.200000000000003,82.0608 21.76,82.7136 25.6,83.43039999999999 28.16,83.81439999999999 32.0,84.288 34.56,84.5568 38.400000000000006,84.8896 40.96,85.0688 44.8,85.2992 47.36,85.4144 51.2,85.568 55.040000000000006,85.6576 57.599999999999994,85.7088 61.44,85.7344 64.0,85.7216 67.84,85.696 70.4,85.6576 74.24,85.5552 76.8,85.4784 80.64,85.3248 83.2,85.1968 85.75999999999999,85.056 89.6,84.8 92.16,84.608 96.0,84.288 99.84,83.904 102.39999999999999,83.6224 104.96,83.3152 108.8,82.8032 111.36,82.4192 115.2,81.7792 117.75999999999999,81.3184 121.6,80.5632 124.16,80.0128 128.0,79.1168 130.56,78.4768 134.4,77.4272 136.96,76.6848 138.24,76.3008 139.52,75.8912 140.8,75.4688 140.8,74.7136 139.52,75.04639999999999 138.24,75.4048 136.96,75.712 135.68,75.95519999999999 134.4,76.1728 133.12,76.352 130.56,76.59519999999999 126.72,76.6976 124.16,76.6336 121.6,76.4928 119.03999999999999,76.1856 115.2,75.6096 111.36,74.88 108.8,74.3424 106.24,73.792 102.39999999999999,72.9344 99.84,72.3712 96.0,71.55199999999999 93.44,71.0272 89.6,70.28479999999999 87.03999999999999,69.8496 83.2,69.2736 80.64,68.9408 76.8,68.5568 74.24,68.3904 70.4,68.1472 66.56,67.9936 64.0,67.94239999999999 60.16,67.8912 57.599999999999994,67.8912 53.760000000000005,67.94239999999999 51.2,68.0064 48.64,68.096 44.8,68.2752 40.96,68.5184 38.400000000000006,68.6976 34.56,69.0432 32.0,69.312 28.16,69.7984 25.6,70.1824 21.76,70.8864 19.200000000000003,71.5264 17.92,71.9232 16.64,72.3968 15.360000000000001,73.024 14.08,73.9712 13.440000000000001,74.752 13.056000000000001,75.6096 12.8,76.8" fill="none" stroke="black" stroke-width="0.5" /></svg>