<?xml version="1.0" encoding="utf-8" standalone="no"?>
<!DOCTYPE svg PUBLIC "-//W3C//DTD SVG 1.1//EN"
  "http://www.w3.org/Graphics/SVG/1.1/DTD/svg11.dtd">
<svg xmlns:xlink="http://www.w3.org/1999/xlink" width="595.62pt" height="213.83424pt" viewBox="0 0 595.62 213.83424" xmlns="http://www.w3.org/2000/svg" version="1.1">
 <metadata>
  <rdf:RDF xmlns:dc="http://purl.org/dc/elements/1.1/" xmlns:cc="http://creativecommons.org/ns#" xmlns:rdf="http://www.w3.org/1999/02/22-rdf-syntax-ns#">
   <cc:Work>
    <dc:type rdf:resource="http://purl.org/dc/dcmitype/StillImage"/>
    <dc:date>2025-02-20T09:48:22.763750</dc:date>
    <dc:format>image/svg+xml</dc:format>
    <dc:creator>
     <cc:Agent>
      <dc:title>Matplotlib v3.6.0, https://matplotlib.org/</dc:title>
     </cc:Agent>
    </dc:creator>
   </cc:Work>
  </rdf:RDF>
 </metadata>
 <defs>
  <style type="text/css">*{stroke-linejoin: round; stroke-linecap: butt}</style>
 </defs>
 <g id="figure_1">
  <g id="patch_1">
   <path d="M 0 213.83424 
L 595.62 213.83424 
L 595.62 0 
L 0 0 
z
" style="fill: #ffffff"/>
  </g>
  <g id="axes_1">
   <g id="matplotlib.axis_1"/>
   <g id="matplotlib.axis_2"/>
   <g id="line2d_1">
    <path d="M 33.619091 196.407722 
L 112.541945 197.442575 
L 145.983832 197.550124 
L 164.711289 197.446934 
L 182.10107 197.113976 
L 202.166203 196.290159 
L 211.529931 195.692797 
L 219.555984 194.9921 
L 226.244361 194.252598 
L 234.270414 193.145781 
L 239.621116 192.173468 
L 243.634143 191.330046 
L 247.647169 190.339405 
L 252.997871 188.723785 
L 257.010898 187.27651 
L 259.686249 186.089139 
L 263.699275 184.042398 
L 266.374626 182.397275 
L 269.049977 180.518292 
L 271.725328 178.403035 
L 274.400679 175.839794 
L 275.738354 174.415892 
L 278.413705 171.158256 
L 279.751381 169.343734 
L 282.426732 165.114554 
L 283.764407 162.728863 
L 285.102083 160.102918 
L 287.777434 153.99312 
L 290.452785 146.61846 
L 291.79046 142.411756 
L 293.128136 137.787106 
L 294.465811 132.70049 
L 297.141162 121.144574 
L 299.816513 107.888643 
L 302.491864 93.196374 
L 309.180242 55.378887 
L 311.855593 42.440935 
L 313.193268 36.858432 
L 314.530944 32.062529 
L 315.868619 27.782547 
L 317.206295 24.181146 
L 318.54397 21.301501 
L 319.881646 19.107774 
L 321.219321 17.536328 
L 322.556997 16.613258 
L 323.894672 16.265193 
L 325.232348 16.550161 
L 326.570023 17.472066 
L 327.907699 18.980867 
L 329.245374 21.083153 
L 330.583049 23.817784 
L 331.920725 26.999654 
L 333.2584 30.736784 
L 334.596076 34.891253 
L 337.271427 44.2582 
L 341.284453 59.016819 
L 343.959804 67.910478 
L 345.29748 71.817354 
L 346.635155 75.149403 
L 347.972831 77.932416 
L 349.310506 80.286369 
L 350.648182 82.124346 
L 351.985857 83.541982 
L 353.323533 84.515039 
L 354.661208 85.11706 
L 355.998884 85.476548 
L 357.336559 85.549226 
L 358.674235 85.407744 
L 361.349586 84.663515 
L 362.687261 84.239855 
L 366.700288 82.629322 
L 370.713314 81.221738 
L 374.726341 80.404022 
L 376.064016 80.238648 
L 378.739367 80.247073 
L 380.077043 80.355729 
L 382.752394 80.882385 
L 386.76542 82.136957 
L 396.129148 85.962919 
L 404.155201 88.339709 
L 409.505903 89.081155 
L 413.51893 88.838275 
L 417.531956 88.256168 
L 424.220334 86.662847 
L 433.584062 83.429595 
L 438.934764 81.231082 
L 441.610115 80.043098 
L 445.623142 78.481445 
L 448.298493 77.432852 
L 450.973843 76.402338 
L 456.324545 74.60286 
L 457.662221 74.093407 
L 464.350598 72.525133 
L 473.714327 71.056326 
L 487.091082 69.793104 
L 489.766433 69.437893 
L 491.104108 69.347885 
L 495.117135 68.653712 
L 496.45481 68.505622 
L 501.805512 67.312552 
L 504.480863 66.637257 
L 512.506916 64.16881 
L 532.572048 57.086861 
L 535.247399 56.388412 
L 540.598101 55.345832 
L 547.286479 54.899507 
L 552.637181 55.045413 
L 556.650207 55.561089 
L 560.663234 56.31466 
L 562.000909 56.645829 
L 562.000909 56.645829 
" clip-path="url(#p1e43c10493)" style="fill: none; stroke: #ff8c00; stroke-width: 10; stroke-linecap: round"/>
   </g>
   <g id="text_1">
    <!-- auto XAS -->
    <g transform="translate(39.089297 178.810231) scale(1.25 -1.25)">
     <defs>
      <path id="TimesNewRomanPS-BoldMT-61" d="M 1828 431 
Q 1294 -41 869 -41 
Q 619 -41 453 123 
Q 288 288 288 534 
Q 288 869 575 1136 
Q 863 1403 1828 1847 
L 1828 2141 
Q 1828 2472 1792 2558 
Q 1756 2644 1656 2708 
Q 1556 2772 1431 2772 
Q 1228 2772 1097 2681 
Q 1016 2625 1016 2550 
Q 1016 2484 1103 2388 
Q 1222 2253 1222 2128 
Q 1222 1975 1108 1867 
Q 994 1759 809 1759 
Q 613 1759 480 1878 
Q 347 1997 347 2156 
Q 347 2381 525 2586 
Q 703 2791 1022 2900 
Q 1341 3009 1684 3009 
Q 2100 3009 2342 2832 
Q 2584 2656 2656 2450 
Q 2700 2319 2700 1847 
L 2700 713 
Q 2700 513 2715 461 
Q 2731 409 2762 384 
Q 2794 359 2834 359 
Q 2916 359 3000 475 
L 3094 400 
Q 2938 169 2770 64 
Q 2603 -41 2391 -41 
Q 2141 -41 2000 76 
Q 1859 194 1828 431 
z
M 1828 659 
L 1828 1638 
Q 1450 1416 1266 1163 
Q 1144 994 1144 822 
Q 1144 678 1247 569 
Q 1325 484 1466 484 
Q 1622 484 1828 659 
z
" transform="scale(0.015625)"/>
      <path id="TimesNewRomanPS-BoldMT-75" d="M 3038 2922 
L 3038 634 
Q 3038 300 3100 217 
Q 3163 134 3353 113 
L 3353 0 
L 2163 0 
L 2163 391 
Q 1953 141 1743 26 
Q 1534 -88 1275 -88 
Q 1028 -88 836 64 
Q 644 216 578 419 
Q 513 622 513 1128 
L 513 2288 
Q 513 2619 452 2700 
Q 391 2781 197 2806 
L 197 2922 
L 1388 2922 
L 1388 925 
Q 1388 613 1417 522 
Q 1447 431 1511 384 
Q 1575 338 1659 338 
Q 1772 338 1863 397 
Q 1988 478 2163 725 
L 2163 2288 
Q 2163 2619 2102 2700 
Q 2041 2781 1847 2806 
L 1847 2922 
L 3038 2922 
z
" transform="scale(0.015625)"/>
      <path id="TimesNewRomanPS-BoldMT-74" d="M 1375 3991 
L 1375 2922 
L 2069 2922 
L 2069 2613 
L 1375 2613 
L 1375 809 
Q 1375 556 1398 482 
Q 1422 409 1481 364 
Q 1541 319 1591 319 
Q 1794 319 1975 628 
L 2069 559 
Q 1816 -41 1247 -41 
Q 969 -41 776 114 
Q 584 269 531 459 
Q 500 566 500 1034 
L 500 2613 
L 119 2613 
L 119 2722 
Q 513 3000 789 3306 
Q 1066 3613 1272 3991 
L 1375 3991 
z
" transform="scale(0.015625)"/>
      <path id="TimesNewRomanPS-BoldMT-6f" d="M 1594 3009 
Q 1975 3009 2303 2812 
Q 2631 2616 2801 2253 
Q 2972 1891 2972 1459 
Q 2972 838 2656 419 
Q 2275 -88 1603 -88 
Q 944 -88 587 375 
Q 231 838 231 1447 
Q 231 2075 595 2542 
Q 959 3009 1594 3009 
z
M 1606 2788 
Q 1447 2788 1333 2667 
Q 1219 2547 1183 2192 
Q 1147 1838 1147 1206 
Q 1147 872 1191 581 
Q 1225 359 1337 243 
Q 1450 128 1594 128 
Q 1734 128 1828 206 
Q 1950 313 1991 503 
Q 2053 800 2053 1703 
Q 2053 2234 1993 2432 
Q 1934 2631 1819 2722 
Q 1738 2788 1606 2788 
z
" transform="scale(0.015625)"/>
      <path id="TimesNewRomanPS-BoldMT-20" transform="scale(0.015625)"/>
      <path id="TimesNewRomanPS-BoldMT-58" d="M 2703 2484 
L 3872 750 
Q 4163 319 4286 226 
Q 4409 134 4578 116 
L 4578 0 
L 2513 0 
L 2513 116 
Q 2759 134 2831 190 
Q 2903 247 2903 328 
Q 2903 384 2881 428 
Q 2838 522 2663 778 
L 2044 1694 
L 1397 903 
Q 1106 544 1106 416 
Q 1106 325 1181 247 
Q 1256 169 1403 134 
Q 1469 116 1672 116 
L 1672 0 
L 44 0 
L 44 116 
Q 322 156 481 266 
Q 691 409 1066 866 
L 1906 1891 
L 828 3475 
Q 563 3866 525 3909 
Q 441 4013 359 4056 
Q 278 4100 134 4122 
L 134 4238 
L 2238 4238 
L 2238 4122 
L 2131 4122 
Q 1950 4122 1878 4064 
Q 1806 4006 1806 3919 
Q 1806 3850 1828 3800 
L 2044 3475 
L 2569 2675 
L 3016 3222 
Q 3359 3644 3359 3813 
Q 3359 3897 3311 3969 
Q 3263 4041 3172 4081 
Q 3081 4122 2891 4122 
L 2891 4238 
L 4450 4238 
L 4450 4122 
Q 4266 4119 4153 4076 
Q 4041 4034 3913 3919 
Q 3831 3844 3506 3453 
L 2703 2484 
z
" transform="scale(0.015625)"/>
      <path id="TimesNewRomanPS-BoldMT-41" d="M 2663 1206 
L 1166 1206 
L 988 794 
Q 900 588 900 453 
Q 900 275 1044 191 
Q 1128 141 1459 116 
L 1459 0 
L 50 0 
L 50 116 
Q 278 150 425 304 
Q 572 459 788 944 
L 2303 4325 
L 2363 4325 
L 3891 850 
Q 4109 356 4250 228 
Q 4356 131 4550 116 
L 4550 0 
L 2500 0 
L 2500 116 
L 2584 116 
Q 2831 116 2931 184 
Q 3000 234 3000 328 
Q 3000 384 2981 444 
Q 2975 472 2888 678 
L 2663 1206 
z
M 2556 1438 
L 1925 2897 
L 1275 1438 
L 2556 1438 
z
" transform="scale(0.015625)"/>
      <path id="TimesNewRomanPS-BoldMT-53" d="M 3006 4334 
L 3041 2922 
L 2913 2922 
Q 2822 3453 2467 3776 
Q 2113 4100 1700 4100 
Q 1381 4100 1195 3929 
Q 1009 3759 1009 3538 
Q 1009 3397 1075 3288 
Q 1166 3141 1366 2997 
Q 1513 2894 2044 2631 
Q 2788 2266 3047 1941 
Q 3303 1616 3303 1197 
Q 3303 666 2889 283 
Q 2475 -100 1838 -100 
Q 1638 -100 1459 -59 
Q 1281 -19 1013 94 
Q 863 156 766 156 
Q 684 156 593 93 
Q 503 31 447 -97 
L 331 -97 
L 331 1503 
L 447 1503 
Q 584 828 976 473 
Q 1369 119 1822 119 
Q 2172 119 2380 309 
Q 2588 500 2588 753 
Q 2588 903 2508 1043 
Q 2428 1184 2265 1311 
Q 2103 1438 1691 1641 
Q 1113 1925 859 2125 
Q 606 2325 470 2572 
Q 334 2819 334 3116 
Q 334 3622 706 3978 
Q 1078 4334 1644 4334 
Q 1850 4334 2044 4284 
Q 2191 4247 2402 4145 
Q 2613 4044 2697 4044 
Q 2778 4044 2825 4094 
Q 2872 4144 2913 4334 
L 3006 4334 
z
" transform="scale(0.015625)"/>
     </defs>
     <use xlink:href="#TimesNewRomanPS-BoldMT-61"/>
     <use xlink:href="#TimesNewRomanPS-BoldMT-75" x="50"/>
     <use xlink:href="#TimesNewRomanPS-BoldMT-74" x="105.615234"/>
     <use xlink:href="#TimesNewRomanPS-BoldMT-6f" x="138.916016"/>
     <use xlink:href="#TimesNewRomanPS-BoldMT-20" x="188.916016"/>
     <use xlink:href="#TimesNewRomanPS-BoldMT-58" x="213.916016"/>
     <use xlink:href="#TimesNewRomanPS-BoldMT-41" x="286.132812"/>
     <use xlink:href="#TimesNewRomanPS-BoldMT-53" x="358.349609"/>
    </g>
   </g>
  </g>
 </g>
 <defs>
  <clipPath id="p1e43c10493">
   <rect x="7.2" y="7.2" width="581.22" height="199.43424"/>
  </clipPath>
 </defs>
</svg>
