<?xml version="1.0" encoding="UTF-8"?>
<!-- Created with Inkscape (http://www.inkscape.org/) -->
<svg width="1024" height="1024" version="1.1" viewBox="0 0 1024 1024" xml:space="preserve" xmlns="http://www.w3.org/2000/svg" xmlns:xlink="http://www.w3.org/1999/xlink"><defs><linearGradient id="linearGradient2983" x1="389.03" x2="515.6" y1="809.7" y2="342.49" gradientTransform="rotate(-7.1884 419.45 327.68)" gradientUnits="userSpaceOnUse"><stop stop-color="#143e89" offset="0"/><stop stop-color="#2beed9" offset="1"/></linearGradient></defs><g><rect x="12" y="12" width="1e3" height="1e3" rx="250"/></g><path d="m587.5 84.167c-2.1042 1.0021-4.472 2.7996-5.5881 4.2969-1.2756 1.7112-2.3342 4.6045-2.3513 6.4283-0.0171 1.8239 1.0244 4.8536 2.3143 6.7328 1.29 1.8793 3.4956 3.5204 4.8999 3.6472 2.1277 0.19209 2.9722 1.7186 5.0721 9.1574 1.3859 4.9096 3.8933 16.183 5.571 25.053 3.0504 16.128 3.05 16.129-13.376 39.793-9.0343 13.015-16.866 23.755-17.405 23.868-0.53854 0.11288-3.7714-14.558-7.1843-32.603-6.2052-32.809-6.2054-32.809-3.2633-34.626 1.7076-1.0547 3.3723-3.73 3.9681-6.3767 0.87562-3.8898 0.67065-5.0784-1.3915-8.0816-1.3297-1.9365-3.56-4.1045-4.9582-4.8184-1.3982-0.71387-4.6737-0.8521-7.2776-0.30647-3.2464 0.68024-5.5325 2.0644-7.2756 4.4028-1.3982 1.8756-2.6414 4.8582-2.7622 6.6276s0.71095 4.5812 1.8483 6.2496c1.1373 1.6684 3.5653 3.596 5.3965 4.2836 3.3295 1.2501 3.33 1.2496 10.148 37.299 6.8181 36.049 6.8173 36.05-4.6176 52.286-10.163 14.43-11.828 16.242-14.97 16.293-3.2532 0.0528-3.6194-0.38857-4.5927-5.5344-1.0382-5.4893-1.3124-5.7493-15-14.281-10.022-6.2465-13.801-9.2688-13.44-10.745 0.27645-1.1292 0.4289-3.8445 0.33806-6.0348-0.13706-3.3038-1.042-4.5399-5.308-7.2528-4.0145-2.553-6.1416-3.0616-9.7018-2.3156-3.3866 0.70964-5.3242 2.0485-7.5272 5.2001-2.3264 3.3284-2.7631 5.3115-2.0287 9.1946 0.73444 3.8831 1.8595 5.5405 5.2196 7.6773 3.2198 2.0476 5.4659 2.484 9.0371 1.7591 4.2-0.8525 6.2234-0.11208 17.423 6.3786 12.671 7.3437 12.671 7.3441 13.79 13.499 0.61516 3.3853 0.57366 7.663-0.0912 9.5063-0.66488 1.8432-0.89189 5.1353-0.50495 7.3141 0.38696 2.1788 1.5103 4.9148 2.4961 6.082 0.98574 1.1672 3.7056 2.5127 6.0446 2.9893s5.8746 0.23494 7.856-0.53745c1.9814-0.7724 4.7447-3.0373 6.1401-5.0328 2.1031-3.0075 2.3213-4.772 1.2737-10.311-1.2639-6.6825-1.264-6.6814 30.098-50.579 31.362-43.897 31.361-43.898 26.356-70.277-4.8271-25.441-4.9198-26.419-2.6259-27.529 1.3081-0.63291 2.8191-3.106 3.357-5.4954 0.53789-2.3894 0.40223-5.7625-0.30008-7.4969-0.70228-1.7344-3.2562-4.1826-5.6754-5.4398-3.5091-1.8236-5.238-1.9708-8.5498-0.72356-0.2854 0.10746-0.58081 0.23459-0.8813 0.37799zm-149.72 75.916c-1.94 0.85015-4.2126 2.6347-5.0488 3.9652-0.83626 1.3306-1.829 4.0432-2.2074 6.0281-0.52269 2.7415-0.072 4.5085 1.8769 7.3477 1.411 2.0557 4.1076 4.0628 5.9926 4.4603 3.4272 0.72274 3.4274 0.72173 7.9544 24.657 4.527 23.935 4.5271 23.937 34.211 42.831 29.684 18.894 29.683 18.893 35.295 46.519 5.6113 27.627 5.6114 27.627-4.095 41.409-9.7064 13.782-9.7063 13.782-13.433-5.9246-3.7271-19.706-3.7266-19.706-35.22-39.649-31.494-19.943-31.493-19.944-33.585-31.004-1.6619-8.7869-1.7292-11.135-0.32277-11.43 0.97369-0.20404 2.6602-2.0277 3.7473-4.0513 1.1301-2.1037 1.6449-5.4358 1.2012-7.7816-0.55708-2.9454-1.9843-4.8712-5.06-6.8272-3.1719-2.0171-5.4622-2.4785-8.8172-1.7755-3.355 0.70301-5.3016 2.0526-7.4977 5.1945-2.1867 3.1285-2.7514 5.3772-2.1494 8.5602 0.56647 2.995 1.9192 5.0187 4.4146 6.6057 1.9787 1.2583 4.1812 2.1664 4.8943 2.017 0.82091-0.17198 2.1778 4.3905 3.6996 12.437 2.4038 12.709 2.403 12.709 33.786 32.067 31.383 19.358 31.384 19.358 35.835 42.891 2.448 12.943 4.8672 23.798 5.3763 24.122 0.50906 0.32372 1.7377-0.0833 2.7303-0.90397 0.9926-0.82062 7.4462-9.6177 14.341-19.55 12.537-18.058 12.536-18.057 6.272-48.175-6.264-30.118-6.263-30.118-35.789-48.648-29.526-18.53-29.527-18.53-33.879-41.54-2.8772-15.213-3.912-23.103-3.0548-23.283 0.71315-0.14942 2.4162-1.8757 3.7862-3.8357 1.5716-2.2484 2.2341-4.9252 1.7938-7.253-0.38377-2.0291-1.793-5.0255-3.1324-6.6597-1.3394-1.6342-4.2253-3.2857-6.4119-3.6691-2.2101-0.38754-5.5415-0.0115-7.5024 0.84755zm77.213 3.6597c-0.79649 0.34784-1.6235 0.89415-2.6366 1.6842-1.8426 1.4369-3.5333 3.5525-3.7563 4.7025-0.22301 1.15-0.12718 3.563 0.21305 5.3619 0.36184 1.9131 2.0675 4.129 4.1104 5.3389 2.4016 1.4223 4.6462 1.7042 7.1841 0.90127 3.1823-1.0068 5.3075-0.17152 15.426 6.0678 6.454 3.9798 12.401 6.8608 13.216 6.4015 0.815-0.45935 1.4933-1.7568 1.507-2.8818 0.0152-1.2474-4.4951-4.7522-11.559-8.985-8.7432-5.2391-11.534-7.5491-11.387-9.4206 0.10702-1.3636-0.77448-3.8985-1.9564-5.6324-1.1819-1.7338-3.8346-3.448-5.8968-3.8096-1.8898-0.33137-3.1354-0.30722-4.4633 0.27142zm-28.35 40.223c0.18595-0.0903 0.37022-0.16889 0.55106-0.23513 0.20665-0.0757 0.40879-0.13602 0.60261-0.17669 1.5509-0.32497 3.8554 0.0686 5.1221 0.87416 1.2668 0.8056 2.5439 2.7375 2.838 4.2925 0.29703 1.5703-0.534 3.9084-1.8701 5.2599-1.323 1.3382-2.7064 2.4602-3.0741 2.494-0.36769 0.0339-1.9971-0.15673-3.6223-0.42505-1.6252-0.26831-3.5802-1.799-4.3428-3.4001-0.95361-2.0018-0.83788-3.7842 0.37088-5.7075 0.74018-1.1777 2.1217-2.3471 3.4244-2.9764zm142.11-38.408c-1.722 0.78209-3.3469 2.1488-4.551 3.8715-1.8274 2.6144-2.2606 4.6605-1.5095 7.121 0.91487 2.997-0.20005 5.2539-8.4392 17.093-5.4221 7.7911-9.0228 14.13-8.3961 14.782 0.60344 0.62743 2.0535 0.94141 3.222 0.69655 1.1686-0.24484 5.9811-5.9947 10.695-12.776 7.4592-10.73 9.1275-12.445 12.86-13.227 2.6959-0.5649 5.1726-2.0847 6.669-4.0921 1.507-2.0217 2.1213-4.5652 1.6735-6.9327-0.40013-2.1156-2.0206-4.6419-3.7306-5.818-1.8145-1.2481-4.5106-1.7659-6.7493-1.2968-0.58359 0.12229-1.1695 0.31832-1.7435 0.57902zm-240.49 139.47c-1.4921 0.65203-3.6133 2.5614-5.0408 4.6037-1.6315 2.3341-2.7641 5.3171-2.5161 6.6284 0.24804 1.3113 2.2596 3.7724 4.47 5.4677 3.279 2.5149 4.7361 2.8459 7.9164 1.8004 3.439-1.1305 5.3273-0.45108 16.032 5.7786 6.6732 3.8835 12.852 6.931 13.73 6.7709 0.87846-0.16008 1.7877-1.277 2.0213-2.4821 0.31283-1.6132-2.7055-4.041-11.451-9.2087-10.088-5.9606-11.987-7.5941-12.601-10.843-0.49902-2.6385-2.0529-4.6716-5.0081-6.551-2.3564-1.4985-5.4866-2.472-6.9558-2.1642-0.18366 0.0385-0.3835 0.10602-0.59668 0.19907zm200.73-84.051c-9.7292 4.4675-15.009 12.052-29.091 32.275-22.531 32.357-22.533 32.357-19.278 49.565 3.2547 17.208 3.255 17.208-11.599 38.497-10.524 15.083-14.528 21.797-13.736 23.03 0.61506 0.95784 1.8394 1.5896 2.7217 1.4047 0.88233-0.18486 8.5111-10.287 16.951-22.449 15.346-22.113 15.345-22.115 12.799-40.169-2.5466-18.054-2.5459-18.053 17.893-47.43 20.438-29.377 20.437-29.376 51.145-35.811 20.535-4.3029 30.785-6.0221 30.942-5.1888 0.12958 0.68538 1.8556 2.2759 3.8343 3.5342 2.5931 1.649 4.9517 2.0046 8.4475 1.2721 3.0064-0.62996 5.8989-2.1992 7.6104-4.1274 1.5375-1.7321 2.7724-4.9451 2.7858-7.2493 0.0155-2.6697-0.89237-5.2566-2.5592-7.2903-1.421-1.7338-4.3724-3.4652-6.559-3.8487-2.299-0.40312-5.5328-0.0144-7.6676 0.92091-2.0438 0.89537-4.5918 3.4163-5.7069 5.6483-2.0144 4.0319-2.0147 4.0319-33.754 10.683-11.902 2.494-19.34 4.0522-25.178 6.7328zm-57.428 28.354c1.3994-0.61783 2.6679-0.49168 4.747 0.28895 2.4541 0.92143 3.7291 2.3903 4.1906 4.8303 0.42496 2.2468-0.11496 4.1294-1.5026 5.2422-1.1911 0.9551-3.3052 1.9767-4.6985 2.2687s-3.6786-0.59601-5.078-1.9733c-1.5387-1.5143-2.405-3.5671-2.1904-5.1932 0.19519-1.479 1.5706-3.5463 3.0548-4.594 0.53028-0.37432 1.0106-0.66373 1.4771-0.86968zm-55.799 25.069c-1.85 0.7452-3.057 1.9376-4.1433 3.9597-1.0871 2.0236-1.729 4.9886-1.4262 6.5896 0.31273 1.6535 2.4754 4.1356 5.0065 5.7452 3.4625 2.2019 5.1779 2.5323 7.6948 1.4833 2.7281-1.1372 4.8347-0.4335 13.363 4.4603 5.5686 3.1955 10.894 5.5229 11.832 5.1724 0.9387-0.35052 1.8127-1.3654 1.9432-2.2551 0.1305-0.88976-4.463-4.7118-10.208-8.4932-5.7447-3.7813-10.16-7.283-9.8115-7.7812 0.34814-0.49814 0.0121-2.2101-0.74712-3.804-0.75925-1.5939-2.6829-3.7263-4.2746-4.7385-1.7558-1.1166-4.5657-1.4891-7.1446-0.94875-0.77876 0.16323-1.4678 0.3619-2.0845 0.6103zm-35.288 37.027c-1.6936 0.65204-4.0452 2.4278-5.5836 4.277-1.8701 2.248-3.2057 5.5506-3.2197 7.9592-0.0154 2.6471 0.89812 5.242 2.5593 7.2688 1.421 1.7337 4.3501 3.4617 6.5084 3.8401 2.1583 0.37845 5.4837 0.17978 7.3903-0.44326 2.8991-0.94741 4.8575-0.18986 11.97 4.6318 8.5044 5.7653 8.5054 5.7651 10.855 18.189 2.3499 12.424 2.3499 12.425-11.356 31.992-13.706 19.567-13.706 19.566-6.8415 55.861 6.4477 34.091 6.7489 36.476 4.958 39.254-1.0488 1.6268-1.7102 4.5892-1.47 6.5836 0.24025 1.9944 0.63962 4.3729 0.88761 5.2864 0.24793 0.91359 0.63675 1.39 0.86484 1.0582 0.22809-0.33177 1.9997-4.0023 3.937-8.1569 3.5225-7.5537 3.524-7.5536-2.8552-43.504-6.3792-35.951-6.3795-35.951 7.2494-55.408 13.629-19.457 13.628-19.457 10.796-34.371-2.8321-14.914-2.8314-14.914-12.223-21.001-7.3687-4.7756-9.2338-6.569-8.656-8.3276 0.40505-1.2328 0.4803-3.593 0.168-5.2442-0.3123-1.6512-1.5004-4.2692-2.6405-5.8174-1.14-1.5482-3.7542-3.2565-5.8106-3.7969-2.0564-0.54033-5.1196-0.6939-6.8064-0.34043-0.21088 0.0441-0.4388 0.11542-0.68067 0.20873zm178.54-76.952c-1.7959 0.7427-3.0179 1.9524-4.087 3.9425-1.0871 2.0236-1.7092 5.0929-1.3823 6.821 0.44848 2.3712-1.6508 6.3394-8.5576 16.173-7.918 11.274-9.6568 13.084-12.898 13.43-2.6686 0.28477-4.4825 1.4551-6.3095 4.0689-1.4333 2.0506-2.3046 5.0412-1.9756 6.7808 0.32377 1.7118 1.3846 4.0554 2.3582 5.2082 0.97356 1.1527 3.081 2.3249 4.683 2.6038 1.602 0.27892 4.254-0.0738 5.8929-0.78255 1.6389-0.70876 3.7956-2.3384 4.7938-3.6224 1.0923-1.4051 1.4913-4.0512 1.0007-6.6452-0.72503-3.8334 0.1703-5.7122 8.0939-16.994 7.9084-11.26 9.4119-12.789 13.397-13.624 2.538-0.53181 5.5514-2.1713 6.9332-3.7719 1.7689-2.0489 2.2101-4.0674 1.597-7.3091s-1.755-4.9303-4.1345-6.1099c-1.8083-0.89641-5.1397-1.2417-7.402-0.76764-0.74164 0.15543-1.4047 0.35087-2.0034 0.59844zm-177.89 83.128c0.5056-0.22636 1.0488-0.40101 1.6222-0.52119 2.2936-0.48059 4.4535 0.0564 6.0114 1.4944 1.3374 1.2345 2.5608 2.9288 2.7192 3.7663 0.15845 0.83749-0.62487 2.8292-1.7411 4.4262-1.1163 1.597-3.1058 3.13-4.4206 3.4055-1.3148 0.27551-3.8149-0.67008-5.5554-2.1012-1.7405-1.4311-3.2289-2.947-3.3086-3.3683-0.0796-0.42131 0.4989-2.1399 1.2852-3.8195 0.68693-1.4673 1.8709-2.6035 3.3877-3.2824zm-83.028 42.614c-1.8147 0.79486-4.3579 3.0636-5.6523 5.0417-1.6706 2.5531-2.0884 4.9968-1.4409 8.42 0.74409 3.9342 1.7724 5.3026 5.5865 7.4327 2.9093 1.6248 6.0512 2.3234 8.318 1.8485 2.0036-0.41978 4.8903-1.6435 6.4149-2.7197 1.5245-1.0762 3.1377-3.3653 3.5841-5.0876 0.78911-3.0443 1.219-3.2174 15.458-6.2011 14.647-3.0691 14.647-3.0691 35.952 10.48 15.721 9.9979 21.812 13.233 23.238 12.346 1.0634-0.6611 1.8321-1.7417 1.7072-2.4016-0.12485-0.65987-9.9511-7.7427-21.834-15.739-21.606-14.54-21.604-14.54-37.995-11.105-16.369 3.4299-16.394 3.4308-18.409 0.69476-1.1096-1.5068-4.1801-3.1249-6.8232-3.5966-2.7469-0.49022-6.2186-0.23849-8.1044 0.58768zm280.03-103.68c-1.8388 0.83241-3.4541 2.3041-5.0221 4.5474-2.5298 3.6193-2.8306 5.1501-1.7803 9.0621 1.1943 4.4482 0.84983 5.3061-6.2724 15.567-7.537 10.859-7.5367 10.857-28.733 15.299-21.197 4.4415-21.197 4.4425-39.552 31.899-15.151 22.664-18.038 27.703-16.539 28.869 0.99856 0.77694 2.22 1.3276 2.7131 1.2243 0.49315-0.10332 8.9483-11.913 18.79-26.243 17.893-26.055 17.893-26.054 38.586-30.39 20.693-4.336 20.693-4.3356 29.056-16.236 8.0985-11.524 8.535-11.928 13.818-12.764 3.9161-0.61993 6.2368-1.7445 8.2242-3.9834 1.5227-1.7155 2.8306-4.757 2.9058-6.7594 0.0863-2.2949-0.83769-4.8309-2.5005-6.8597-1.4509-1.7702-3.8159-3.5456-5.256-3.9456-1.44-0.40003-4.3732-0.35877-6.5169 0.0904-0.66924 0.14025-1.3066 0.34554-1.9196 0.62299zm-241.46 139.79c-2.0659 0.82312-3.5721 2.1689-5.2192 4.5253-2.0245 2.8964-2.7405 5.4376-2.2552 8.0033 0.4894 2.5876 2.0817 4.6317 5.1079 6.5561 3.6532 2.3232 5.2245 2.5607 9.3035 1.4078 4.6099-1.303 5.5318-0.99433 15.141 5.0641 10.233 6.4513 10.233 6.4511 19.313 54.46 7.824 41.367 9.3318 47.957 10.897 47.629 0.9992-0.20938 2.1982-1.5392 2.6645-2.9552 0.54362-1.6508-2.366-19.569-8.1104-49.941-8.9587-47.367-8.9587-47.368-19.779-53.634-10.82-6.2656-10.821-6.2639-11.064-11.653-0.21917-4.8521-0.68845-5.6735-4.7161-8.2349-3.3547-2.1334-5.607-2.6065-9.0056-1.8943-0.83875 0.17574-1.589 0.39262-2.2776 0.66699zm192.9-66.313c-7.0442 3.3465-10.24 8.2662-17.541 19.511-12.981 19.99-12.981 19.99-32.313 24.057-19.323 4.0656-19.332 4.0664-21.27 1.4353-1.0661-1.4478-3.8804-3.1418-6.2548-3.7657-2.7596-0.72507-5.6386-0.58357-7.9789 0.39213-2.0137 0.83955-4.7248 2.953-6.0248 4.6968-1.2999 1.7438-2.2418 3.8145-2.0929 4.6017 0.14887 0.78714-1.4766 2.1582-3.6132 3.0473-2.7832 1.158-6.6936 5.6175-13.789 15.723-9.9036 14.106-9.904 14.106-7.3807 27.232 2.5233 13.126 2.523 13.126 4.9518 9.1396 2.103-3.4511 2.2118-5.1399 0.80346-12.586-1.6266-8.6001-1.6264-8.6008 7.2824-21.285 4.8998-6.9762 9.8743-12.886 11.054-13.133 1.1802-0.24733 2.2331 0.0129 2.3402 0.57913 0.10709 0.56617 1.9328 2.136 4.058 3.4875 3.0065 1.9119 5.0782 2.2026 9.3329 1.3111 4.1522-0.87004 6.0676-2.0032 7.959-4.7092 1.37-1.96 2.3857-4.1246 2.2561-4.8099-0.15464-0.81776 6.9738-2.7558 20.738-5.6399 20.974-4.3949 20.974-4.3963 26.896-13.692 5.9216-9.2956 5.9212-9.2953 31.154-14.582 25.232-5.2872 25.233-5.2874 31.276-1.5244 5.7634 3.5884 6.0672 4.04 6.5633 9.7211 0.47048 5.3877 0.9479 6.2287 4.9852 8.7962 3.3274 2.116 5.6057 2.6007 8.9447 1.901 2.4639-0.5163 5.654-2.0584 7.0901-3.4267 1.4361-1.3682 2.881-4.1543 3.2096-6.1916 0.39803-2.4666-0.086-5.0524-1.4464-7.736-1.3214-2.6066-3.5978-4.5768-6.4463-5.5784-3.1243-1.0986-5.652-1.0981-8.6967 3e-3 -3.9022 1.4118-4.9472 1.131-11.5-3.1077-7.2075-4.6621-7.2068-4.6622-29.888 0.0903-12.475 2.6139-22.753 4.3703-22.841 3.9034-0.0883-0.46688 1.7525-3.6416 4.0914-7.0542 4.2525-6.2046 4.2536-6.2037 33.884-12.412 29.63-6.2087 29.629-6.209 33.701-3.4157 2.24 1.5363 5.632 2.84 7.5376 2.8978 1.9226 0.0582 5.01-0.91045 6.9368-2.1766 1.9098-1.255 3.9988-3.9587 4.6415-6.0082 0.64267-2.0495 0.91803-5.0523 0.61138-6.6735-0.30661-1.6212-2.2477-4.2439-4.3124-5.8273-2.0646-1.5835-5.3478-2.8397-7.2964-2.7911-1.9486 0.0486-5.2172 1.1968-7.2645 2.5508-2.0473 1.3539-4.1136 3.9662-4.5904 5.8054-0.86678 3.344-0.86517 3.3443-32.591 10.054-13.88 2.9356-21.689 4.5865-27.167 7.1894zm-82.887 46.943c0.51171-0.20611 1.0291-0.3698 1.5246-0.47359 2.4487-0.51311 4.4127 0.0424 6.1289 1.7315 2.073 2.0402 2.3489 3.0371 1.5349 5.5643-0.54544 1.6935-1.5318 3.6011-2.1912 4.24-0.65945 0.63894-2.366 1.4161-3.7932 1.725-1.4272 0.30948-3.7048-0.2246-5.0605-1.1869-1.3557-0.96233-2.6785-2.8758-2.9389-4.2524-0.2604-1.3766 0.2457-3.5298 1.1228-4.7846 0.6578-0.94109 2.1374-1.945 3.6725-2.5634zm37.182 16.48c-8.1296 3.1696-11.24 7.7313-19.534 19.895-7.2992 10.704-13.133 20.198-12.963 21.097 0.17009 0.89945 0.74997 1.9142 1.2873 2.256 0.53743 0.34178 1.3102 0.55293 1.7179 0.46745 0.40776-0.0854 6.6621-8.6452 13.898-19.022 13.157-18.866 13.157-18.867 41.307-24.765 26.585-5.5706 28.215-5.7819 29.328-3.7874 0.64814 1.1615 3.3013 2.5937 5.8956 3.1825 3.9133 0.88843 5.4207 0.67615 8.8437-1.2419 2.4496-1.3726 4.8265-4.0425 5.8495-6.5719 1.1654-2.8816 1.2771-5.3717 0.34744-7.6912-0.75608-1.8863-3.0057-4.4682-5.0017-5.7384-2.692-1.7131-4.9544-2.0314-8.7576-1.2345-4.3776 0.91728-5.5888 1.8451-8.2832 6.3533-3.1557 5.2801-3.1555 5.281-31.677 11.257-10.695 2.2411-17.38 3.6411-22.258 5.5429zm103.39-40.978c0.41812-0.18633 0.83314-0.32708 1.2208-0.40834 1.5509-0.32497 3.9287 0.1957 5.2843 1.158 1.3557 0.96234 2.6703 2.8313 2.9203 4.1532 0.24997 1.3218-0.39893 3.5044-1.4412 4.8508-1.0422 1.3464-2.7024 2.618-3.6906 2.8251-0.98825 0.20709-3.1962-0.19896-4.9052-0.90182-1.7259-0.70981-3.3455-2.5351-3.6425-4.1054-0.29409-1.5549 0.18434-3.8537 1.0614-5.1085 0.65779-0.94114 1.9385-1.9036 3.1926-2.463zm-117.81 83.338c-2.5882 1.2284-3.4464 2.6506-5.1643 5.4976-3.3138 5.4917-3.7056 5.751-11.026 7.2665-7.5904 1.5713-7.5911 1.5703-15.16 12.931-4.1627 6.2486-8.2461 12.935-9.0754 14.859-0.82927 1.9238-1.0421 3.9827-0.47257 4.5748 0.56957 0.5922 1.7915 0.91779 2.7162 0.72405 0.92463-0.19372 5.3586-6.1404 9.8536-13.216 8.1728-12.865 8.1732-12.867 15.798-14.465 7.5192-1.5756 7.6762-1.6845 11.276-7.9378 3.6507-6.3414 3.65-6.341 47.7-15.571 44.05-9.2302 44.05-9.2313 48.933-5.9173 3.8313 2.6003 5.8498 3.1112 9.3687 2.3739 3.1537-0.66082 5.4454-2.165 7.7214-5.0678 2.584-3.2956 3.0581-5.0735 2.3504-8.8152-0.7077-3.7417-1.7927-5.1926-5.3788-7.1953-2.4706-1.3798-5.9053-2.2116-7.6337-1.8494-1.7284 0.36219-4.5988 1.7936-6.3784 3.1814-1.7796 1.3878-3.3895 3.6761-3.5755 5.0857-0.32577 2.4683-1.4203 2.7944-29.69 8.8207-16.144 3.4414-37.125 8.1164-46.623 10.39-8.6348 2.0668-12.952 3.1016-15.54 4.3301zm-98.67 47.376c-0.11039 0.023-3.5438 10.084-7.6294 22.356-4.0856 12.272-9.4068 29.348-11.824 37.947-4.3954 15.634-4.3955 15.633-2.368 29.618 1.1151 7.6916 3.569 18.555 5.453 24.139 1.884 5.5841 3.9406 11.007 4.5686 12.052 0.77243 1.2855 0.65832 1.6016-0.35282 0.97523-0.82211-0.5093-3.325-4.167-5.5612-8.1286-2.2361-3.9616-5.465-10.979-7.1754-15.593-1.7104-4.6142-3.4168-7.8806-3.7915-7.2597-0.37502 0.62101-2.2067 10.092-4.0707 21.047-1.8639 10.955-4.1498 26.768-5.0788 35.141-0.929 8.3734-2.0086 19.846-2.4001 25.494-0.44514 6.4233 0.0166 14.119 1.2329 20.55 1.0695 5.6548 3.6114 14.231 5.6485 19.058 2.0371 4.8265 6.0686 12.433 8.9594 16.903 2.8908 4.4699 5.0911 8.3618 4.8899 8.6496-0.20121 0.28785-1.7567-0.75101-3.456-2.3084-1.6993-1.5575-5.0106-5.2312-7.3603-8.1639-2.3497-2.9327-6.341-9.0675-8.8688-13.632-4.596-8.2997-4.5961-8.2981-2.1507 6.6795 1.5975 9.7842 3.9026 18.867 6.6483 26.195 2.3116 6.1694 6.1914 14.556 8.6207 18.639 2.4293 4.083 6.7747 10.597 9.6573 14.475 2.8826 3.8779 6.8938 8.8429 8.9135 11.034 3.6722 3.9846 3.6728 3.9852 2.4892-17.344-0.65099-11.731-1.2506-28.286-1.3308-36.789-0.0802-8.5027 0.0466-20.518 0.28125-26.702 0.23461-6.1832 0.88945-18.031 1.4558-26.328 0.56628-8.2974 2.1578-24.324 3.5365-35.615 1.3787-11.291 4.0774-29.114 5.9959-39.608 1.9184-10.494 5.1103-25.974 7.0934-34.4 3.6058-15.32 3.6055-15.319 0.31619-24.913-1.8091-5.2766-5.2811-19.632-7.7154-31.901-2.4343-12.269-4.5157-22.289-4.6262-22.267zm53.184-20.699c-0.28962-0.18421-3.3486 6.2707-6.7977 14.344-3.4491 8.0735-8.3186 20.125-10.822 26.784-2.5029 6.6585-7.383 22.18-10.845 34.492-3.4616 12.312-7.9048 29.924-9.8739 39.138-1.9692 9.2138-5.4302 29.456-7.6904 44.983-2.2602 15.527-4.8085 38.415-5.6646 50.863-0.85604 12.447-1.605 30.17-1.6644 39.383s0.1735 24.221 0.51815 33.35c0.34467 9.1289 1.4864 28.129 2.5369 42.222 1.5484 20.772 3.2018 32.507 8.7372 61.987 3.7554 20.001 8.7234 43.735 11.038 52.741 2.3146 9.0063 4.4888 15.521 4.8319 14.478 0.34307-1.0437 1.0781-10.357 1.6334-20.697 0.96551-17.981 0.80562-20.048-3.6752-47.468-4.6848-28.668-4.6848-28.668-2.1578-34.148 1.3899-3.0136 4.912-8.1985 7.8294-11.522 2.9173-3.3231 7.4113-7.5069 9.9867-9.2969 2.5754-1.79 7.5451-4.662 11.043-6.383 6.3594-3.1291 6.3588-3.1301-0.61812-1.7497-3.8373 0.75922-9.8322 2.5392-13.322 3.9552-3.4896 1.416-6.6226 2.3973-6.9631 2.1808-0.3405-0.21653 3.7117-4.6008 9.0041-9.7427 5.2924-5.142 14.11-13.231 19.595-17.976 5.485-4.7453 10.197-8.9719 10.472-9.3926 0.27501-0.4207-1.3484-0.0135-3.6073 0.90606-2.2589 0.91958-10.101 5.4758-17.426 10.125-7.3255 4.6488-17.243 11.778-22.039 15.843-4.796 4.0652-8.944 7.2492-9.2186 7.0745-0.27458-0.17459-1.1353-9.5674-1.9128-20.873-0.77749-11.305-1.5363-30.374-1.6854-42.374-0.14912-12-0.11606-28.821 0.0719-37.38 0.18793-8.5589 1.1716-26.61 2.1854-40.113 1.0138-13.503 3.6116-36.452 5.7732-50.998 2.1616-14.545 5.4362-33.688 7.2765-42.541 1.8403-8.8522 5.8434-26.323 8.8962-38.823s7.6949-29.546 10.316-37.883c2.6208-8.3366 4.5275-15.308 4.2379-15.492zm65.158-18.178c-0.97557 0.34359-2.8111 1.6104-4.7137 3.3088-2.5369 2.2646-11.464 9.4542-19.839 15.977-8.4416 6.5746-20.224 17.247-26.44 23.951-6.1673 6.6503-14.128 16.566-17.689 22.035-5.8664 9.0082-6.857 11.706-10.543 28.686-2.2377 10.309-5.4338 26.557-7.1013 36.108-1.6675 9.5505-4.2674 27.383-5.7778 39.626-1.5105 12.244-3.3536 31.311-4.0952 42.371-0.7416 11.06-1.5368 31.303-1.7688 44.982-0.23204 13.68 0.0617 35.367 0.65337 48.192 0.59166 12.826 1.1041 24.589 1.1405 26.142 0.0364 1.5529 0.49547 2.5718 1.0191 2.2647 0.52367-0.30706 5.0937-5.2768 10.155-11.045 5.0614-5.7685 13.505-16.366 18.764-23.548 5.2592-7.1823 12.591-18.25 16.295-24.595 3.7035-6.3453 9.2485-17.362 12.321-24.48 3.0724-7.1186 6.9756-17.539 8.6732-23.156 1.6975-5.6172 4.2684-15.914 5.7133-22.882 1.4449-6.9686 3.7174-20.985 5.0511-31.147 1.3337-10.162 3.2281-29.379 4.2081-42.704 0.97999-13.325 1.4817-24.166 1.1168-24.089-0.36488 0.0765-3.3664 3.7118-6.6702 8.0786-3.3038 4.3668-9.6825 11.293-14.177 15.391-4.4941 4.098-12.423 10.003-17.619 13.121-5.1964 3.1183-9.8501 5.7538-10.342 5.8564-0.49207 0.10258 3.0859-3.3088 7.9515-7.5796 4.8656-4.2708 11.656-10.757 15.09-14.414 3.434-3.6574 9.4461-10.965 13.361-16.239 3.915-5.2742 8.6906-13.154 10.613-17.509 2.2194-5.0278 3.8224-11.759 4.3887-18.434 0.49058-5.783 2.255-19.722 3.9206-30.976 1.6657-11.254 4.0928-25.424 5.3947-31.489 1.3019-6.0651 2.0253-11.383 1.6067-11.818-0.10473-0.10876-0.33508-0.0971-0.66027 0.0174zm-152.83 330.44c-0.27026 0.18033 2.3578 2.2654 6.369 5.0181 4.5037 3.0908 10.789 7.9376 13.966 10.771 3.1766 2.8335 5.8779 5.6997 6.0047 6.3702 0.1268 0.67048-3.8283 0.46419-8.7897-0.45879-4.9614-0.92304-9.7825-1.5342-10.713-1.3578-0.93051 0.17653 1.3562 1.5287 5.0811 3.0038 3.725 1.4751 10.238 5.6687 14.475 9.3206 7.7028 6.6397 7.7027 6.6405 6.3584-5.7424-1.3443-12.383-1.3434-12.383-6.048-14.939-2.5875-1.4057-9.1398-4.5326-14.561-6.948-5.421-2.4154-10.78-4.6724-11.909-5.0158-0.12347-0.0376-0.19981-0.0448-0.233-0.0226z" fill="url(#linearGradient2983)" stroke-width="1.2397"/></svg>
